<svg width="13" height="15" viewBox="0 0 13 15" fill="none" xmlns="http://www.w3.org/2000/svg">
<path opacity="0.5" fill-rule="evenodd" clip-rule="evenodd" d="M2.85 1.35039C2.76716 1.35039 2.7 1.41755 2.7 1.50039V3.50039C2.7 3.58323 2.76716 3.65039 2.85 3.65039C2.93284 3.65039 3 3.58323 3 3.50039V1.50039C3 1.41755 2.93284 1.35039 2.85 1.35039ZM2 1.50039C2 1.03095 2.38056 0.650391 2.85 0.650391C3.31944 0.650391 3.7 1.03095 3.7 1.50039V2.15039H9V1.50039C9 1.03095 9.38056 0.650391 9.85 0.650391C10.3194 0.650391 10.7 1.03095 10.7 1.50039V2.15039H11.85C12.3194 2.15039 12.7 2.53095 12.7 3.00039V13.5004C12.7 13.9698 12.3194 14.3504 11.85 14.3504H0.85C0.380558 14.3504 0 13.9698 0 13.5004V3.00039C0 2.53095 0.380558 2.15039 0.85 2.15039H2V1.50039ZM2 2.85039H0.85C0.767157 2.85039 0.7 2.91755 0.7 3.00039V4.65039H12V3.00039C12 2.91755 11.9328 2.85039 11.85 2.85039H10.7V3.50039C10.7 3.96983 10.3194 4.35039 9.85 4.35039C9.38056 4.35039 9 3.96983 9 3.50039V2.85039H3.7V3.50039C3.7 3.96983 3.31944 4.35039 2.85 4.35039C2.38056 4.35039 2 3.96983 2 3.50039V2.85039ZM12 5.35039H0.7V13.5004C0.7 13.5832 0.767157 13.6504 0.85 13.6504H11.85C11.9328 13.6504 12 13.5832 12 13.5004V5.35039ZM9.85 1.35039C9.76716 1.35039 9.7 1.41755 9.7 1.50039V3.50039C9.7 3.58323 9.76716 3.65039 9.85 3.65039C9.93284 3.65039 10 3.58323 10 3.50039V1.50039C10 1.41755 9.93284 1.35039 9.85 1.35039ZM9.0355 6.70359C9.19942 6.80604 9.24925 7.02197 9.1468 7.18589L6.97992 10.6529C6.69021 11.1164 6.0446 11.19 5.65808 10.8034L4.10251 9.24788C3.96583 9.11119 3.96583 8.88959 4.10251 8.7529C4.2392 8.61622 4.4608 8.61622 4.59749 8.7529L6.15305 10.3085C6.22126 10.3767 6.33519 10.3637 6.38632 10.2819L8.5532 6.81489C8.65565 6.65097 8.87158 6.60114 9.0355 6.70359Z" fill="#141414"/>
</svg>
