<svg width="20" height="20" viewBox="0 0 20 20" fill="none" xmlns="http://www.w3.org/2000/svg">
<path opacity="0.5" d="M19.4822 7.84512L19.4824 7.84577C19.5019 7.90579 19.5039 7.97011 19.4883 8.03124C19.4726 8.09237 19.44 8.14781 19.3941 8.19111L19.394 8.19121L15.1773 12.1712L14.9786 12.3588L15.0291 12.6273L16.0758 18.1865L16.0759 18.1868C16.0874 18.2477 16.0817 18.3105 16.0595 18.3683C16.0373 18.4261 15.9994 18.4766 15.9501 18.514C15.9008 18.5515 15.8421 18.5745 15.7805 18.5805C15.7188 18.5865 15.6567 18.5752 15.6012 18.5478L10.2879 15.9337L10.0629 15.823L9.83965 15.9371L4.56921 18.6302C4.5692 18.6302 4.56918 18.6302 4.56916 18.6302C4.51411 18.6583 4.45233 18.6705 4.39073 18.6655C4.32912 18.6605 4.27011 18.6384 4.22032 18.6018C4.17052 18.5652 4.13188 18.5154 4.10873 18.4581C4.08561 18.4009 4.07884 18.3383 4.08917 18.2775C4.08918 18.2774 4.0892 18.2773 4.08921 18.2772L5.04497 12.7026L5.09111 12.4336L4.88968 12.2493L0.607279 8.33102C0.560777 8.28845 0.527301 8.23356 0.510736 8.17273C0.494171 8.1119 0.495196 8.04762 0.513692 7.98735C0.532189 7.92708 0.567398 7.87329 0.615233 7.83223C0.66303 7.7912 0.721476 7.76455 0.783797 7.75537C0.783846 7.75536 0.783896 7.75536 0.783945 7.75535L6.68365 6.89289L6.93997 6.85542L7.05719 6.62443L9.6497 1.5161L9.65012 1.51526C9.67761 1.46083 9.71958 1.41503 9.77141 1.3829C9.82324 1.35077 9.88293 1.33355 9.9439 1.33314L9.9439 1.33317L9.94982 1.33306C10.0096 1.33195 10.0685 1.3476 10.1198 1.37823C10.1711 1.40887 10.2128 1.45327 10.2402 1.5064L10.2402 1.50641L10.2424 1.51064L12.9174 6.58064L13.0382 6.80946L13.2947 6.84308L19.2089 7.61808L19.2093 7.61814C19.2716 7.62624 19.3304 7.65188 19.3787 7.69207L19.6984 7.30769L19.3787 7.69207C19.427 7.73225 19.4629 7.78533 19.4822 7.84512Z" stroke="#141414"/>
</svg>
