<svg width="20" height="20" viewBox="0 0 20 20" fill="none" xmlns="http://www.w3.org/2000/svg">
<path d="M19.958 7.69148C19.9096 7.54155 19.8196 7.40845 19.6984 7.30769C19.5773 7.20692 19.4301 7.14264 19.2738 7.12232L13.3597 6.34732L10.6847 1.27732C10.6145 1.14117 10.5076 1.02739 10.376 0.948891C10.2445 0.870389 10.0936 0.830294 9.9405 0.83315C9.78759 0.834192 9.63793 0.877369 9.50797 0.957933C9.37801 1.0385 9.27277 1.15333 9.20383 1.28982L6.61133 6.39815L0.711328 7.26065C0.555388 7.28354 0.409136 7.35018 0.289548 7.45285C0.169959 7.55551 0.0819358 7.68999 0.035695 7.84066C-0.0105459 7.99134 -0.0131087 8.15203 0.028304 8.30411C0.0697166 8.45618 0.153407 8.59339 0.269661 8.69982L4.55216 12.6182L3.59633 18.1932C3.57035 18.3455 3.58724 18.5021 3.64512 18.6454C3.703 18.7886 3.79959 18.913 3.92409 19.0046C4.04859 19.0961 4.1961 19.1513 4.35013 19.1638C4.50416 19.1764 4.65865 19.1458 4.79633 19.0757L10.0672 16.3823L15.3805 18.9965C15.5194 19.0648 15.6746 19.0931 15.8286 19.0782C15.9827 19.0633 16.1296 19.0057 16.2528 18.912C16.376 18.8183 16.4707 18.6922 16.5262 18.5477C16.5817 18.4032 16.5959 18.2461 16.5672 18.094L15.5205 12.5348L19.7372 8.55482C19.8519 8.44657 19.9336 8.30798 19.9727 8.15515C20.0118 8.00232 20.0067 7.84153 19.958 7.69148Z" fill="#FFCA0E"/>
</svg>
